<?xml version="1.0" encoding="UTF-8"?><svg xmlns="http://www.w3.org/2000/svg" xmlns:xlink="http://www.w3.org/1999/xlink" fill-opacity="1" color-rendering="auto" color-interpolation="auto" text-rendering="auto" stroke="black" stroke-linecap="square" width="1338" stroke-miterlimit="10" shape-rendering="auto" stroke-opacity="1" fill="black" stroke-dasharray="none" font-weight="normal" stroke-width="1" height="913" font-family="'Dialog'" font-style="normal" stroke-linejoin="miter" font-size="12px" stroke-dashoffset="0" image-rendering="auto">
  <!--Generated by ySVG 2.6-->
  <defs id="genericDefs"/>
  <g>
    <g fill="white" text-rendering="geometricPrecision" shape-rendering="geometricPrecision" transform="translate(207,-256)" stroke="white">
      <rect x="-207" width="1338" height="913" y="256" clip-path="url(#clipPath2)" stroke="none"/>
    </g>
    <g text-rendering="geometricPrecision" shape-rendering="geometricPrecision" transform="matrix(1.4743,0,0,1.4523,774.7767,544)">
      <g clip-path="url(#clipPath3)">
        <svg xmlns:svg="http://www.w3.org/2000/svg" xmlns:sodipodi="http://sodipodi.sourceforge.net/DTD/sodipodi-0.dtd" xmlns:inkscape="http://www.inkscape.org/namespaces/inkscape" xmlns:dc="http://purl.org/dc/elements/1.1/" xmlns:cc="http://web.resource.org/cc/" xmlns:rdf="http://www.w3.org/1999/02/22-rdf-syntax-ns#" opacity="1" writing-mode="lr-tb" stop-color="rgb(0, 0, 0)" shape-rendering="auto" glyph-orientation-horizontal="0deg" color-profile="auto" lighting-color="rgb(255, 255, 255)" color="rgb(0, 0, 0)" font-weight="400" alignment-baseline="auto" font-style="normal" version="1.0" color-interpolation-filters="linearrgb" text-anchor="start" stroke-linecap="butt" color-interpolation="srgb" font-variant="normal" word-spacing="normal" fill-opacity="1" text-rendering="auto" clip-path="none" text-decoration="none" letter-spacing="normal" glyph-orientation-vertical="auto" display="inline" font-size-adjust="none" overflow="hidden" fill="rgb(0, 0, 0)" font-stretch="normal" stroke-dasharray="none" inkscape:version="0.45.1" id="svg1.svg2" stroke-miterlimit="4" stop-opacity="1" color-rendering="auto" font-size="12" sodipodi:docbase="C:\Daten\alberts\projects\yfx" pointer-events="visiblepainted" mask="none" direction="ltr" baseline-shift="baseline" sodipodi:docname="uml_actor.svg" enable-background="accumulate" fill-rule="nonzero" image-rendering="auto" stroke-dashoffset="0" inkscape:output_extension="org.inkscape.output.svg.inkscape" marker-end="none" width="41" clip="auto" cursor="auto" stroke="none" filter="none" visibility="visible" kerning="auto" stroke-width="1" font-family="&quot;Arial&quot;,&quot;Helvetica&quot;,sans-serif" flood-opacity="1" clip-rule="nonzero" src="none" height="68.997391" unicode-bidi="normal" sodipodi:version="0.32" stroke-linejoin="miter" stroke-opacity="1" flood-color="rgb(0, 0, 0)" dominant-baseline="auto" marker-start="none" marker-mid="none">
            
          <defs id="svg1.defs4">
            <linearGradient x1="690.5" gradientUnits="userSpaceOnUse" x2="860.5" y1="457" y2="542" id="linearGradient1" spreadMethod="reflect">
              <stop stop-opacity="1" stop-color="rgb(232,238,247)" offset="0%"/>
              <stop stop-opacity="1" stop-color="rgb(183,201,227)" offset="100%"/>
            </linearGradient>
            <linearGradient x1="683" gradientUnits="userSpaceOnUse" x2="853" y1="342" y2="427" id="linearGradient2" spreadMethod="reflect">
              <stop stop-opacity="1" stop-color="rgb(232,238,247)" offset="0%"/>
              <stop stop-opacity="1" stop-color="rgb(183,201,227)" offset="100%"/>
            </linearGradient>
            <linearGradient x1="690.5" gradientUnits="userSpaceOnUse" x2="860.5" y1="580" y2="665" id="linearGradient3" spreadMethod="reflect">
              <stop stop-opacity="1" stop-color="rgb(232,238,247)" offset="0%"/>
              <stop stop-opacity="1" stop-color="rgb(183,201,227)" offset="100%"/>
            </linearGradient>
            <linearGradient x1="106.75" gradientUnits="userSpaceOnUse" x2="276.75" y1="502.25" y2="587.25" id="linearGradient4" spreadMethod="reflect">
              <stop stop-opacity="1" stop-color="rgb(232,238,247)" offset="0%"/>
              <stop stop-opacity="1" stop-color="rgb(183,201,227)" offset="100%"/>
            </linearGradient>
            <linearGradient x1="256.5" gradientUnits="userSpaceOnUse" x2="426.5" y1="1038.25" y2="1123.25" id="linearGradient5" spreadMethod="reflect">
              <stop stop-opacity="1" stop-color="rgb(232,238,247)" offset="0%"/>
              <stop stop-opacity="1" stop-color="rgb(183,201,227)" offset="100%"/>
            </linearGradient>
            <linearGradient x1="106.75" gradientUnits="userSpaceOnUse" x2="276.75" y1="666" y2="751" id="linearGradient6" spreadMethod="reflect">
              <stop stop-opacity="1" stop-color="rgb(232,238,247)" offset="0%"/>
              <stop stop-opacity="1" stop-color="rgb(183,201,227)" offset="100%"/>
            </linearGradient>
            <linearGradient x1="-76" gradientUnits="userSpaceOnUse" x2="94" y1="807.5" y2="892.5" id="linearGradient7" spreadMethod="reflect">
              <stop stop-opacity="1" stop-color="rgb(232,238,247)" offset="0%"/>
              <stop stop-opacity="1" stop-color="rgb(183,201,227)" offset="100%"/>
            </linearGradient>
            <linearGradient x1="-192" gradientUnits="userSpaceOnUse" x2="-22" y1="936.25" y2="1021.25" id="linearGradient8" spreadMethod="reflect">
              <stop stop-opacity="1" stop-color="rgb(232,238,247)" offset="0%"/>
              <stop stop-opacity="1" stop-color="rgb(183,201,227)" offset="100%"/>
            </linearGradient>
            <linearGradient x1="35" gradientUnits="userSpaceOnUse" x2="205" y1="938" y2="1023" id="linearGradient9" spreadMethod="reflect">
              <stop stop-opacity="1" stop-color="rgb(232,238,247)" offset="0%"/>
              <stop stop-opacity="1" stop-color="rgb(183,201,227)" offset="100%"/>
            </linearGradient>
            <linearGradient x1="823" gradientUnits="userSpaceOnUse" x2="993" y1="807.5" y2="892.5" id="linearGradient10" spreadMethod="reflect">
              <stop stop-opacity="1" stop-color="rgb(232,238,247)" offset="0%"/>
              <stop stop-opacity="1" stop-color="rgb(183,201,227)" offset="100%"/>
            </linearGradient>
            <linearGradient x1="707" gradientUnits="userSpaceOnUse" x2="877" y1="936.25" y2="1021.25" id="linearGradient11" spreadMethod="reflect">
              <stop stop-opacity="1" stop-color="rgb(232,238,247)" offset="0%"/>
              <stop stop-opacity="1" stop-color="rgb(183,201,227)" offset="100%"/>
            </linearGradient>
            <linearGradient x1="934" gradientUnits="userSpaceOnUse" x2="1104" y1="938" y2="1023" id="linearGradient12" spreadMethod="reflect">
              <stop stop-opacity="1" stop-color="rgb(232,238,247)" offset="0%"/>
              <stop stop-opacity="1" stop-color="rgb(183,201,227)" offset="100%"/>
            </linearGradient>
            <linearGradient x1="458" gradientUnits="userSpaceOnUse" x2="628" y1="1038.25" y2="1123.25" id="linearGradient13" spreadMethod="reflect">
              <stop stop-opacity="1" stop-color="rgb(232,238,247)" offset="0%"/>
              <stop stop-opacity="1" stop-color="rgb(183,201,227)" offset="100%"/>
            </linearGradient>
            <linearGradient x1="35" gradientUnits="userSpaceOnUse" x2="205" y1="1068.5" y2="1153.5" id="linearGradient14" spreadMethod="reflect">
              <stop stop-opacity="1" stop-color="rgb(232,238,247)" offset="0%"/>
              <stop stop-opacity="1" stop-color="rgb(183,201,227)" offset="100%"/>
            </linearGradient>
            <linearGradient x1="934" gradientUnits="userSpaceOnUse" x2="1104" y1="1068.5" y2="1153.5" id="linearGradient15" spreadMethod="reflect">
              <stop stop-opacity="1" stop-color="rgb(232,238,247)" offset="0%"/>
              <stop stop-opacity="1" stop-color="rgb(183,201,227)" offset="100%"/>
            </linearGradient>
            <linearGradient x1="946" gradientUnits="userSpaceOnUse" x2="1116" y1="271" y2="356" id="linearGradient16" spreadMethod="reflect">
              <stop stop-opacity="1" stop-color="rgb(232,238,247)" offset="0%"/>
              <stop stop-opacity="1" stop-color="rgb(183,201,227)" offset="100%"/>
            </linearGradient>
            <linearGradient x1="946" gradientUnits="userSpaceOnUse" x2="1116" y1="407.5" y2="492.5" id="linearGradient17" spreadMethod="reflect">
              <stop stop-opacity="1" stop-color="rgb(232,238,247)" offset="0%"/>
              <stop stop-opacity="1" stop-color="rgb(183,201,227)" offset="100%"/>
            </linearGradient>
            <clipPath clipPathUnits="userSpaceOnUse" id="clipPath1">
              <path d="M0 0 L1338 0 L1338 913 L0 913 L0 0 Z"/>
            </clipPath>
            <clipPath clipPathUnits="userSpaceOnUse" id="clipPath2">
              <path d="M-207 256 L1131 256 L1131 1169 L-207 1169 L-207 256 Z"/>
            </clipPath>
            <clipPath clipPathUnits="userSpaceOnUse" id="clipPath3">
              <path d="M-525.5189 -374.5761 L382.0255 -374.5761 L382.0255 254.0783 L-525.5189 254.0783 L-525.5189 -374.5761 Z"/>
            </clipPath>
            <clipPath clipPathUnits="userSpaceOnUse" id="clipPath4">
              <path d="M-429.2025 -220.3389 L478.3419 -220.3389 L478.3419 408.3155 L-429.2025 408.3155 L-429.2025 -220.3389 Z"/>
            </clipPath>
            <clipPath clipPathUnits="userSpaceOnUse" id="clipPath5">
              <path d="M-429.2025 -90.2012 L478.3419 -90.2012 L478.3419 538.4532 L-429.2025 538.4532 L-429.2025 -90.2012 Z"/>
            </clipPath>
            <clipPath clipPathUnits="userSpaceOnUse" id="clipPath6">
              <path d="M-306.7722 -374.5761 L600.7722 -374.5761 L600.7722 254.0783 L-306.7722 254.0783 L-306.7722 -374.5761 Z"/>
            </clipPath>
          </defs>
            
  
          <metadata id="svg1.metadata7">
    
  </metadata>
            
          <g inkscape:groupmode="layer" id="svg1.layer1" transform="translate(-29.5,-42.959476)" inkscape:label="Ebene 1">
                
            <a id="svg1.a3142" transform="matrix(1.0873906,0,0,1,-4.4741999,0)">
                    
              <path transform="translate(11.586889,5.2908993)" style="fill:none;fill-rule:evenodd;stroke:#000000;stroke-width:1px;stroke-linecap:butt;stroke-linejoin:miter;stroke-opacity:1" sodipodi:cx="38.509369" sodipodi:cy="47.36993" sodipodi:rx="8.5197716" id="svg1.path2160" d="M 47.02914 47.36993 A 8.5197716 9.2013531 0 1 1  29.989597,47.36993 A 8.5197716 9.2013531 0 1 1  47.02914 47.36993 z" sodipodi:ry="9.2013531" sodipodi:type="arc"/>
                  
            </a>
                
            <path style="fill:none" sodipodi:cx="43.962021" sodipodi:cy="48.392303" d="M 47.71072 48.392303 A 3.7486994 0 0 1 1  40.213321,48.392303 A 3.7486994 0 0 1 1  47.71072 48.392303 z" id="svg1.path3134" sodipodi:rx="3.7486994" sodipodi:ry="0" sodipodi:type="arc"/>
                
            <path style="fill:none;fill-rule:evenodd;stroke:#000000;stroke-width:1.24319649px;stroke-linecap:butt;stroke-linejoin:miter;stroke-opacity:1" d="M 50,61.33709 C 50,91.363211 50,92.247838 50,92.247838" id="svg1.path3136"/>
                
            <path style="fill:none;fill-rule:evenodd;stroke:#000000;stroke-width:1px;stroke-linecap:butt;stroke-linejoin:miter;stroke-opacity:1" d="M 69.760668,72.362183 C 69.760668,72.362183 69.760668,72.362183 50.239332,72.362183 C 30.239332,72.362183 30.239332,72.362183 30.239332,72.362183 L 30.239332,72.362183" id="svg1.path3138"/>
                
            <path style="fill:none;fill-rule:evenodd;stroke:#000000;stroke-width:1px;stroke-linecap:butt;stroke-linejoin:miter;stroke-opacity:1" d="M 30,111.45687 C 30,111.45687 30,111.45687 50,92.013532 C 70,111.45687 70,111.45687 70,111.45687" id="svg1.path3140"/>
              
          </g>
          
        </svg>
      </g>
    </g>
    <g font-size="13px" stroke-linecap="butt" transform="matrix(1,0,0,1,207,-256)" text-rendering="geometricPrecision" font-family="sans-serif" shape-rendering="geometricPrecision" stroke-miterlimit="1.45">
      <text x="560.8313" xml:space="preserve" y="918.0669" clip-path="url(#clipPath2)" stroke="none">Сотрудник</text>
    </g>
    <g text-rendering="geometricPrecision" shape-rendering="geometricPrecision" transform="matrix(1.4743,0,0,1.4523,632.7767,320)">
      <g clip-path="url(#clipPath4)">
        <svg xmlns:svg="http://www.w3.org/2000/svg" xmlns:sodipodi="http://sodipodi.sourceforge.net/DTD/sodipodi-0.dtd" xmlns:inkscape="http://www.inkscape.org/namespaces/inkscape" xmlns:dc="http://purl.org/dc/elements/1.1/" xmlns:cc="http://web.resource.org/cc/" xmlns:rdf="http://www.w3.org/1999/02/22-rdf-syntax-ns#" opacity="1" writing-mode="lr-tb" stop-color="rgb(0, 0, 0)" shape-rendering="auto" glyph-orientation-horizontal="0deg" color-profile="auto" lighting-color="rgb(255, 255, 255)" color="rgb(0, 0, 0)" font-weight="400" alignment-baseline="auto" font-style="normal" version="1.0" color-interpolation-filters="linearrgb" text-anchor="start" stroke-linecap="butt" color-interpolation="srgb" font-variant="normal" word-spacing="normal" fill-opacity="1" text-rendering="auto" clip-path="none" text-decoration="none" letter-spacing="normal" glyph-orientation-vertical="auto" display="inline" font-size-adjust="none" overflow="hidden" fill="rgb(0, 0, 0)" font-stretch="normal" stroke-dasharray="none" inkscape:version="0.45.1" id="svg2.svg2" stroke-miterlimit="4" stop-opacity="1" color-rendering="auto" font-size="12" sodipodi:docbase="C:\Daten\alberts\projects\yfx" pointer-events="visiblepainted" mask="none" direction="ltr" baseline-shift="baseline" sodipodi:docname="uml_actor.svg" enable-background="accumulate" fill-rule="nonzero" image-rendering="auto" stroke-dashoffset="0" inkscape:output_extension="org.inkscape.output.svg.inkscape" marker-end="none" width="41" clip="auto" cursor="auto" stroke="none" filter="none" visibility="visible" kerning="auto" stroke-width="1" font-family="&quot;Arial&quot;,&quot;Helvetica&quot;,sans-serif" flood-opacity="1" clip-rule="nonzero" src="none" height="68.997391" unicode-bidi="normal" sodipodi:version="0.32" stroke-linejoin="miter" stroke-opacity="1" flood-color="rgb(0, 0, 0)" dominant-baseline="auto" marker-start="none" marker-mid="none">
            
          <defs id="svg2.defs4"/>
            
  
          <metadata id="svg2.metadata7">
    
  </metadata>
            
          <g inkscape:groupmode="layer" id="svg2.layer1" transform="translate(-29.5,-42.959476)" inkscape:label="Ebene 1">
                
            <a id="svg2.a3142" transform="matrix(1.0873906,0,0,1,-4.4741999,0)">
                    
              <path transform="translate(11.586889,5.2908993)" style="fill:none;fill-rule:evenodd;stroke:#000000;stroke-width:1px;stroke-linecap:butt;stroke-linejoin:miter;stroke-opacity:1" sodipodi:cx="38.509369" sodipodi:cy="47.36993" sodipodi:rx="8.5197716" id="svg2.path2160" d="M 47.02914 47.36993 A 8.5197716 9.2013531 0 1 1  29.989597,47.36993 A 8.5197716 9.2013531 0 1 1  47.02914 47.36993 z" sodipodi:ry="9.2013531" sodipodi:type="arc"/>
                  
            </a>
                
            <path style="fill:none" sodipodi:cx="43.962021" sodipodi:cy="48.392303" d="M 47.71072 48.392303 A 3.7486994 0 0 1 1  40.213321,48.392303 A 3.7486994 0 0 1 1  47.71072 48.392303 z" id="svg2.path3134" sodipodi:rx="3.7486994" sodipodi:ry="0" sodipodi:type="arc"/>
                
            <path style="fill:none;fill-rule:evenodd;stroke:#000000;stroke-width:1.24319649px;stroke-linecap:butt;stroke-linejoin:miter;stroke-opacity:1" d="M 50,61.33709 C 50,91.363211 50,92.247838 50,92.247838" id="svg2.path3136"/>
                
            <path style="fill:none;fill-rule:evenodd;stroke:#000000;stroke-width:1px;stroke-linecap:butt;stroke-linejoin:miter;stroke-opacity:1" d="M 69.760668,72.362183 C 69.760668,72.362183 69.760668,72.362183 50.239332,72.362183 C 30.239332,72.362183 30.239332,72.362183 30.239332,72.362183 L 30.239332,72.362183" id="svg2.path3138"/>
                
            <path style="fill:none;fill-rule:evenodd;stroke:#000000;stroke-width:1px;stroke-linecap:butt;stroke-linejoin:miter;stroke-opacity:1" d="M 30,111.45687 C 30,111.45687 30,111.45687 50,92.013532 C 70,111.45687 70,111.45687 70,111.45687" id="svg2.path3140"/>
              
          </g>
          
        </svg>
      </g>
    </g>
    <g font-size="13px" stroke-linecap="butt" transform="matrix(1,0,0,1,207,-256)" text-rendering="geometricPrecision" font-family="sans-serif" shape-rendering="geometricPrecision" stroke-miterlimit="1.45">
      <text x="396.4399" xml:space="preserve" y="694.0669" clip-path="url(#clipPath2)" stroke="none">Авторизованный </text>
    </g>
    <g font-size="13px" stroke-linecap="butt" transform="matrix(1,0,0,1,207,-256)" text-rendering="geometricPrecision" font-family="sans-serif" shape-rendering="geometricPrecision" stroke-miterlimit="1.45">
      <text x="408.7703" xml:space="preserve" y="709.1997" clip-path="url(#clipPath2)" stroke="none">пользователь</text>
    </g>
    <g text-rendering="geometricPrecision" shape-rendering="geometricPrecision" transform="matrix(1.4743,0,0,1.4523,632.7767,131)">
      <g clip-path="url(#clipPath5)">
        <svg xmlns:svg="http://www.w3.org/2000/svg" xmlns:sodipodi="http://sodipodi.sourceforge.net/DTD/sodipodi-0.dtd" xmlns:inkscape="http://www.inkscape.org/namespaces/inkscape" xmlns:dc="http://purl.org/dc/elements/1.1/" xmlns:cc="http://web.resource.org/cc/" xmlns:rdf="http://www.w3.org/1999/02/22-rdf-syntax-ns#" opacity="1" writing-mode="lr-tb" stop-color="rgb(0, 0, 0)" shape-rendering="auto" glyph-orientation-horizontal="0deg" color-profile="auto" lighting-color="rgb(255, 255, 255)" color="rgb(0, 0, 0)" font-weight="400" alignment-baseline="auto" font-style="normal" version="1.0" color-interpolation-filters="linearrgb" text-anchor="start" stroke-linecap="butt" color-interpolation="srgb" font-variant="normal" word-spacing="normal" fill-opacity="1" text-rendering="auto" clip-path="none" text-decoration="none" letter-spacing="normal" glyph-orientation-vertical="auto" display="inline" font-size-adjust="none" overflow="hidden" fill="rgb(0, 0, 0)" font-stretch="normal" stroke-dasharray="none" inkscape:version="0.45.1" id="svg3.svg2" stroke-miterlimit="4" stop-opacity="1" color-rendering="auto" font-size="12" sodipodi:docbase="C:\Daten\alberts\projects\yfx" pointer-events="visiblepainted" mask="none" direction="ltr" baseline-shift="baseline" sodipodi:docname="uml_actor.svg" enable-background="accumulate" fill-rule="nonzero" image-rendering="auto" stroke-dashoffset="0" inkscape:output_extension="org.inkscape.output.svg.inkscape" marker-end="none" width="41" clip="auto" cursor="auto" stroke="none" filter="none" visibility="visible" kerning="auto" stroke-width="1" font-family="&quot;Arial&quot;,&quot;Helvetica&quot;,sans-serif" flood-opacity="1" clip-rule="nonzero" src="none" height="68.997391" unicode-bidi="normal" sodipodi:version="0.32" stroke-linejoin="miter" stroke-opacity="1" flood-color="rgb(0, 0, 0)" dominant-baseline="auto" marker-start="none" marker-mid="none">
            
          <defs id="svg3.defs4"/>
            
  
          <metadata id="svg3.metadata7">
    
  </metadata>
            
          <g inkscape:groupmode="layer" id="svg3.layer1" transform="translate(-29.5,-42.959476)" inkscape:label="Ebene 1">
                
            <a id="svg3.a3142" transform="matrix(1.0873906,0,0,1,-4.4741999,0)">
                    
              <path transform="translate(11.586889,5.2908993)" style="fill:none;fill-rule:evenodd;stroke:#000000;stroke-width:1px;stroke-linecap:butt;stroke-linejoin:miter;stroke-opacity:1" sodipodi:cx="38.509369" sodipodi:cy="47.36993" sodipodi:rx="8.5197716" id="svg3.path2160" d="M 47.02914 47.36993 A 8.5197716 9.2013531 0 1 1  29.989597,47.36993 A 8.5197716 9.2013531 0 1 1  47.02914 47.36993 z" sodipodi:ry="9.2013531" sodipodi:type="arc"/>
                  
            </a>
                
            <path style="fill:none" sodipodi:cx="43.962021" sodipodi:cy="48.392303" d="M 47.71072 48.392303 A 3.7486994 0 0 1 1  40.213321,48.392303 A 3.7486994 0 0 1 1  47.71072 48.392303 z" id="svg3.path3134" sodipodi:rx="3.7486994" sodipodi:ry="0" sodipodi:type="arc"/>
                
            <path style="fill:none;fill-rule:evenodd;stroke:#000000;stroke-width:1.24319649px;stroke-linecap:butt;stroke-linejoin:miter;stroke-opacity:1" d="M 50,61.33709 C 50,91.363211 50,92.247838 50,92.247838" id="svg3.path3136"/>
                
            <path style="fill:none;fill-rule:evenodd;stroke:#000000;stroke-width:1px;stroke-linecap:butt;stroke-linejoin:miter;stroke-opacity:1" d="M 69.760668,72.362183 C 69.760668,72.362183 69.760668,72.362183 50.239332,72.362183 C 30.239332,72.362183 30.239332,72.362183 30.239332,72.362183 L 30.239332,72.362183" id="svg3.path3138"/>
                
            <path style="fill:none;fill-rule:evenodd;stroke:#000000;stroke-width:1px;stroke-linecap:butt;stroke-linejoin:miter;stroke-opacity:1" d="M 30,111.45687 C 30,111.45687 30,111.45687 50,92.013532 C 70,111.45687 70,111.45687 70,111.45687" id="svg3.path3140"/>
              
          </g>
          
        </svg>
      </g>
    </g>
    <g font-size="13px" stroke-linecap="butt" transform="matrix(1,0,0,1,207,-256)" text-rendering="geometricPrecision" font-family="sans-serif" shape-rendering="geometricPrecision" stroke-miterlimit="1.45">
      <text x="388.0166" xml:space="preserve" y="505.0669" clip-path="url(#clipPath2)" stroke="none">Неавторизованный </text>
      <text x="408.7703" xml:space="preserve" y="520.1997" clip-path="url(#clipPath2)" stroke="none">пользователь</text>
    </g>
    <g fill="url(#linearGradient1)" text-rendering="geometricPrecision" shape-rendering="geometricPrecision" transform="matrix(1,0,0,1,207,-256)" stroke="url(#linearGradient1)">
      <ellipse rx="85" ry="42.5" clip-path="url(#clipPath2)" cx="775.5" cy="499.5" stroke="none"/>
    </g>
    <g text-rendering="geometricPrecision" stroke-miterlimit="1.45" shape-rendering="geometricPrecision" transform="matrix(1,0,0,1,207,-256)" stroke-linecap="butt">
      <ellipse rx="85" fill="none" ry="42.5" clip-path="url(#clipPath2)" cx="775.5" cy="499.5"/>
      <text x="694.2188" xml:space="preserve" y="496.6699" clip-path="url(#clipPath2)" font-family="sans-serif" stroke="none">Посмотреть информацию</text>
      <text x="708.1787" xml:space="preserve" y="510.6387" clip-path="url(#clipPath2)" font-family="sans-serif" stroke="none">о конкретном товаре</text>
    </g>
    <g fill="url(#linearGradient2)" text-rendering="geometricPrecision" shape-rendering="geometricPrecision" transform="matrix(1,0,0,1,207,-256)" stroke="url(#linearGradient2)">
      <ellipse rx="85" ry="42.5" clip-path="url(#clipPath2)" cx="768" cy="384.5" stroke="none"/>
    </g>
    <g text-rendering="geometricPrecision" stroke-miterlimit="1.45" shape-rendering="geometricPrecision" transform="matrix(1,0,0,1,207,-256)" stroke-linecap="butt">
      <ellipse rx="85" fill="none" ry="42.5" clip-path="url(#clipPath2)" cx="768" cy="384.5"/>
      <text x="746.8975" xml:space="preserve" y="381.6699" clip-path="url(#clipPath2)" font-family="sans-serif" stroke="none">Войти/</text>
      <text x="703.4473" xml:space="preserve" y="395.6387" clip-path="url(#clipPath2)" font-family="sans-serif" stroke="none">зарегистрироваться</text>
    </g>
    <g fill="url(#linearGradient3)" text-rendering="geometricPrecision" shape-rendering="geometricPrecision" transform="matrix(1,0,0,1,207,-256)" stroke="url(#linearGradient3)">
      <ellipse rx="85" ry="42.5" clip-path="url(#clipPath2)" cx="775.5" cy="622.5" stroke="none"/>
    </g>
    <g text-rendering="geometricPrecision" stroke-miterlimit="1.45" shape-rendering="geometricPrecision" transform="matrix(1,0,0,1,207,-256)" stroke-linecap="butt">
      <ellipse rx="85" fill="none" ry="42.5" clip-path="url(#clipPath2)" cx="775.5" cy="622.5"/>
      <text x="755.3525" xml:space="preserve" y="626.6543" clip-path="url(#clipPath2)" font-family="sans-serif" stroke="none">Выйти</text>
    </g>
    <g fill="url(#linearGradient4)" text-rendering="geometricPrecision" shape-rendering="geometricPrecision" transform="matrix(1,0,0,1,207,-256)" stroke="url(#linearGradient4)">
      <ellipse rx="85" ry="42.5" clip-path="url(#clipPath2)" cx="191.75" cy="544.75" stroke="none"/>
    </g>
    <g text-rendering="geometricPrecision" stroke-miterlimit="1.45" shape-rendering="geometricPrecision" transform="matrix(1,0,0,1,207,-256)" stroke-linecap="butt">
      <ellipse rx="85" fill="none" ry="42.5" clip-path="url(#clipPath2)" cx="191.75" cy="544.75"/>
      <text x="152.1377" xml:space="preserve" y="541.9199" clip-path="url(#clipPath2)" font-family="sans-serif" stroke="none">Посмотреть </text>
      <text x="142.1123" xml:space="preserve" y="555.8887" clip-path="url(#clipPath2)" font-family="sans-serif" stroke="none">личные данные</text>
    </g>
    <g fill="url(#linearGradient5)" text-rendering="geometricPrecision" shape-rendering="geometricPrecision" transform="matrix(1,0,0,1,207,-256)" stroke="url(#linearGradient5)">
      <ellipse rx="85" ry="42.5" clip-path="url(#clipPath2)" cx="341.5" cy="1080.75" stroke="none"/>
    </g>
    <g text-rendering="geometricPrecision" stroke-miterlimit="1.45" shape-rendering="geometricPrecision" transform="matrix(1,0,0,1,207,-256)" stroke-linecap="butt">
      <ellipse rx="85" fill="none" ry="42.5" clip-path="url(#clipPath2)" cx="341.5" cy="1080.75"/>
      <text x="301.8877" xml:space="preserve" y="1077.9199" clip-path="url(#clipPath2)" font-family="sans-serif" stroke="none">Посмотреть </text>
      <text x="287.9043" xml:space="preserve" y="1091.8887" clip-path="url(#clipPath2)" font-family="sans-serif" stroke="none">историю заказов</text>
    </g>
    <g text-rendering="geometricPrecision" shape-rendering="geometricPrecision" transform="matrix(1.4743,0,0,1.4523,452.2767,544)">
      <g clip-path="url(#clipPath6)">
        <svg xmlns:svg="http://www.w3.org/2000/svg" xmlns:sodipodi="http://sodipodi.sourceforge.net/DTD/sodipodi-0.dtd" xmlns:inkscape="http://www.inkscape.org/namespaces/inkscape" xmlns:dc="http://purl.org/dc/elements/1.1/" xmlns:cc="http://web.resource.org/cc/" xmlns:rdf="http://www.w3.org/1999/02/22-rdf-syntax-ns#" opacity="1" writing-mode="lr-tb" stop-color="rgb(0, 0, 0)" shape-rendering="auto" glyph-orientation-horizontal="0deg" color-profile="auto" lighting-color="rgb(255, 255, 255)" color="rgb(0, 0, 0)" font-weight="400" alignment-baseline="auto" font-style="normal" version="1.0" color-interpolation-filters="linearrgb" text-anchor="start" stroke-linecap="butt" color-interpolation="srgb" font-variant="normal" word-spacing="normal" fill-opacity="1" text-rendering="auto" clip-path="none" text-decoration="none" letter-spacing="normal" glyph-orientation-vertical="auto" display="inline" font-size-adjust="none" overflow="hidden" fill="rgb(0, 0, 0)" font-stretch="normal" stroke-dasharray="none" inkscape:version="0.45.1" id="svg4.svg2" stroke-miterlimit="4" stop-opacity="1" color-rendering="auto" font-size="12" sodipodi:docbase="C:\Daten\alberts\projects\yfx" pointer-events="visiblepainted" mask="none" direction="ltr" baseline-shift="baseline" sodipodi:docname="uml_actor.svg" enable-background="accumulate" fill-rule="nonzero" image-rendering="auto" stroke-dashoffset="0" inkscape:output_extension="org.inkscape.output.svg.inkscape" marker-end="none" width="41" clip="auto" cursor="auto" stroke="none" filter="none" visibility="visible" kerning="auto" stroke-width="1" font-family="&quot;Arial&quot;,&quot;Helvetica&quot;,sans-serif" flood-opacity="1" clip-rule="nonzero" src="none" height="68.997391" unicode-bidi="normal" sodipodi:version="0.32" stroke-linejoin="miter" stroke-opacity="1" flood-color="rgb(0, 0, 0)" dominant-baseline="auto" marker-start="none" marker-mid="none">
            
          <defs id="svg4.defs4"/>
            
  
          <metadata id="svg4.metadata7">
    
  </metadata>
            
          <g inkscape:groupmode="layer" id="svg4.layer1" transform="translate(-29.5,-42.959476)" inkscape:label="Ebene 1">
                
            <a id="svg4.a3142" transform="matrix(1.0873906,0,0,1,-4.4741999,0)">
                    
              <path transform="translate(11.586889,5.2908993)" style="fill:none;fill-rule:evenodd;stroke:#000000;stroke-width:1px;stroke-linecap:butt;stroke-linejoin:miter;stroke-opacity:1" sodipodi:cx="38.509369" sodipodi:cy="47.36993" sodipodi:rx="8.5197716" id="svg4.path2160" d="M 47.02914 47.36993 A 8.5197716 9.2013531 0 1 1  29.989597,47.36993 A 8.5197716 9.2013531 0 1 1  47.02914 47.36993 z" sodipodi:ry="9.2013531" sodipodi:type="arc"/>
                  
            </a>
                
            <path style="fill:none" sodipodi:cx="43.962021" sodipodi:cy="48.392303" d="M 47.71072 48.392303 A 3.7486994 0 0 1 1  40.213321,48.392303 A 3.7486994 0 0 1 1  47.71072 48.392303 z" id="svg4.path3134" sodipodi:rx="3.7486994" sodipodi:ry="0" sodipodi:type="arc"/>
                
            <path style="fill:none;fill-rule:evenodd;stroke:#000000;stroke-width:1.24319649px;stroke-linecap:butt;stroke-linejoin:miter;stroke-opacity:1" d="M 50,61.33709 C 50,91.363211 50,92.247838 50,92.247838" id="svg4.path3136"/>
                
            <path style="fill:none;fill-rule:evenodd;stroke:#000000;stroke-width:1px;stroke-linecap:butt;stroke-linejoin:miter;stroke-opacity:1" d="M 69.760668,72.362183 C 69.760668,72.362183 69.760668,72.362183 50.239332,72.362183 C 30.239332,72.362183 30.239332,72.362183 30.239332,72.362183 L 30.239332,72.362183" id="svg4.path3138"/>
                
            <path style="fill:none;fill-rule:evenodd;stroke:#000000;stroke-width:1px;stroke-linecap:butt;stroke-linejoin:miter;stroke-opacity:1" d="M 30,111.45687 C 30,111.45687 30,111.45687 50,92.013532 C 70,111.45687 70,111.45687 70,111.45687" id="svg4.path3140"/>
              
          </g>
          
        </svg>
      </g>
    </g>
    <g font-size="13px" stroke-linecap="butt" transform="matrix(1,0,0,1,207,-256)" text-rendering="geometricPrecision" font-family="sans-serif" shape-rendering="geometricPrecision" stroke-miterlimit="1.45">
      <text x="250.4712" xml:space="preserve" y="918.0669" clip-path="url(#clipPath2)" stroke="none">Клиент</text>
    </g>
    <g fill="url(#linearGradient6)" text-rendering="geometricPrecision" shape-rendering="geometricPrecision" transform="matrix(1,0,0,1,207,-256)" stroke="url(#linearGradient6)">
      <ellipse rx="85" ry="42.5" clip-path="url(#clipPath2)" cx="191.75" cy="708.5" stroke="none"/>
    </g>
    <g text-rendering="geometricPrecision" stroke-miterlimit="1.45" shape-rendering="geometricPrecision" transform="matrix(1,0,0,1,207,-256)" stroke-linecap="butt">
      <ellipse rx="85" fill="none" ry="42.5" clip-path="url(#clipPath2)" cx="191.75" cy="708.5"/>
      <text x="141.4531" xml:space="preserve" y="705.6699" clip-path="url(#clipPath2)" font-family="sans-serif" stroke="none">Добавить товар</text>
      <text x="160.6396" xml:space="preserve" y="719.6387" clip-path="url(#clipPath2)" font-family="sans-serif" stroke="none">в корзину</text>
    </g>
    <g fill="url(#linearGradient7)" text-rendering="geometricPrecision" shape-rendering="geometricPrecision" transform="matrix(1,0,0,1,207,-256)" stroke="url(#linearGradient7)">
      <ellipse rx="85" ry="42.5" clip-path="url(#clipPath2)" cx="9" cy="850" stroke="none"/>
    </g>
    <g text-rendering="geometricPrecision" stroke-miterlimit="1.45" shape-rendering="geometricPrecision" transform="matrix(1,0,0,1,207,-256)" stroke-linecap="butt">
      <ellipse rx="85" fill="none" ry="42.5" clip-path="url(#clipPath2)" cx="9" cy="850"/>
      <text x="-51.1025" xml:space="preserve" y="854.1543" clip-path="url(#clipPath2)" font-family="sans-serif" stroke="none">Перейти к корзину</text>
    </g>
    <g fill="url(#linearGradient8)" text-rendering="geometricPrecision" shape-rendering="geometricPrecision" transform="matrix(1,0,0,1,207,-256)" stroke="url(#linearGradient8)">
      <ellipse rx="85" ry="42.5" clip-path="url(#clipPath2)" cx="-107" cy="978.75" stroke="none"/>
    </g>
    <g text-rendering="geometricPrecision" stroke-miterlimit="1.45" shape-rendering="geometricPrecision" transform="matrix(1,0,0,1,207,-256)" stroke-linecap="butt">
      <ellipse rx="85" fill="none" ry="42.5" clip-path="url(#clipPath2)" cx="-107" cy="978.75"/>
      <text x="-153.3418" xml:space="preserve" y="982.9043" clip-path="url(#clipPath2)" font-family="sans-serif" stroke="none">Удалить товар</text>
    </g>
    <g fill="url(#linearGradient9)" text-rendering="geometricPrecision" shape-rendering="geometricPrecision" transform="matrix(1,0,0,1,207,-256)" stroke="url(#linearGradient9)">
      <ellipse rx="85" ry="42.5" clip-path="url(#clipPath2)" cx="120" cy="980.5" stroke="none"/>
    </g>
    <g text-rendering="geometricPrecision" stroke-miterlimit="1.45" shape-rendering="geometricPrecision" transform="matrix(1,0,0,1,207,-256)" stroke-linecap="butt">
      <ellipse rx="85" fill="none" ry="42.5" clip-path="url(#clipPath2)" cx="120" cy="980.5"/>
      <text x="74.1768" xml:space="preserve" y="984.6543" clip-path="url(#clipPath2)" font-family="sans-serif" stroke="none">Сдалать заказ</text>
    </g>
    <g fill="url(#linearGradient10)" text-rendering="geometricPrecision" shape-rendering="geometricPrecision" transform="matrix(1,0,0,1,207,-256)" stroke="url(#linearGradient10)">
      <ellipse rx="85" ry="42.5" clip-path="url(#clipPath2)" cx="908" cy="850" stroke="none"/>
    </g>
    <g text-rendering="geometricPrecision" stroke-miterlimit="1.45" shape-rendering="geometricPrecision" transform="matrix(1,0,0,1,207,-256)" stroke-linecap="butt">
      <ellipse rx="85" fill="none" ry="42.5" clip-path="url(#clipPath2)" cx="908" cy="850"/>
      <text x="847.8975" xml:space="preserve" y="854.1543" clip-path="url(#clipPath2)" font-family="sans-serif" stroke="none">Перейти к корзину</text>
    </g>
    <g fill="url(#linearGradient11)" text-rendering="geometricPrecision" shape-rendering="geometricPrecision" transform="matrix(1,0,0,1,207,-256)" stroke="url(#linearGradient11)">
      <ellipse rx="85" ry="42.5" clip-path="url(#clipPath2)" cx="792" cy="978.75" stroke="none"/>
    </g>
    <g text-rendering="geometricPrecision" stroke-miterlimit="1.45" shape-rendering="geometricPrecision" transform="matrix(1,0,0,1,207,-256)" stroke-linecap="butt">
      <ellipse rx="85" fill="none" ry="42.5" clip-path="url(#clipPath2)" cx="792" cy="978.75"/>
      <text x="745.6582" xml:space="preserve" y="982.9043" clip-path="url(#clipPath2)" font-family="sans-serif" stroke="none">Удалить товар</text>
    </g>
    <g fill="url(#linearGradient12)" text-rendering="geometricPrecision" shape-rendering="geometricPrecision" transform="matrix(1,0,0,1,207,-256)" stroke="url(#linearGradient12)">
      <ellipse rx="85" ry="42.5" clip-path="url(#clipPath2)" cx="1019" cy="980.5" stroke="none"/>
    </g>
    <g text-rendering="geometricPrecision" stroke-miterlimit="1.45" shape-rendering="geometricPrecision" transform="matrix(1,0,0,1,207,-256)" stroke-linecap="butt">
      <ellipse rx="85" fill="none" ry="42.5" clip-path="url(#clipPath2)" cx="1019" cy="980.5"/>
      <text x="956.1201" xml:space="preserve" y="984.6543" clip-path="url(#clipPath2)" font-family="sans-serif" stroke="none">Оформить продажу</text>
    </g>
    <g fill="url(#linearGradient13)" text-rendering="geometricPrecision" shape-rendering="geometricPrecision" transform="matrix(1,0,0,1,207,-256)" stroke="url(#linearGradient13)">
      <ellipse rx="85" ry="42.5" clip-path="url(#clipPath2)" cx="543" cy="1080.75" stroke="none"/>
    </g>
    <g text-rendering="geometricPrecision" stroke-miterlimit="1.45" shape-rendering="geometricPrecision" transform="matrix(1,0,0,1,207,-256)" stroke-linecap="butt">
      <ellipse rx="85" fill="none" ry="42.5" clip-path="url(#clipPath2)" cx="543" cy="1080.75"/>
      <text x="503.3877" xml:space="preserve" y="1077.9199" clip-path="url(#clipPath2)" font-family="sans-serif" stroke="none">Посмотреть </text>
      <text x="489.3369" xml:space="preserve" y="1091.8887" clip-path="url(#clipPath2)" font-family="sans-serif" stroke="none">историю продаж</text>
    </g>
    <g fill="url(#linearGradient14)" text-rendering="geometricPrecision" shape-rendering="geometricPrecision" transform="matrix(1,0,0,1,207,-256)" stroke="url(#linearGradient14)">
      <ellipse rx="85" ry="42.5" clip-path="url(#clipPath2)" cx="120" cy="1111" stroke="none"/>
    </g>
    <g text-rendering="geometricPrecision" stroke-miterlimit="1.45" shape-rendering="geometricPrecision" transform="matrix(1,0,0,1,207,-256)" stroke-linecap="butt">
      <ellipse rx="85" fill="none" ry="42.5" clip-path="url(#clipPath2)" cx="120" cy="1111"/>
      <text x="73.1367" xml:space="preserve" y="1108.1699" clip-path="url(#clipPath2)" font-family="sans-serif" stroke="none">Выбрать точку</text>
      <text x="90.6504" xml:space="preserve" y="1122.1387" clip-path="url(#clipPath2)" font-family="sans-serif" stroke="none">доставки</text>
    </g>
    <g fill="url(#linearGradient15)" text-rendering="geometricPrecision" shape-rendering="geometricPrecision" transform="matrix(1,0,0,1,207,-256)" stroke="url(#linearGradient15)">
      <ellipse rx="85" ry="42.5" clip-path="url(#clipPath2)" cx="1019" cy="1111" stroke="none"/>
    </g>
    <g text-rendering="geometricPrecision" stroke-miterlimit="1.45" shape-rendering="geometricPrecision" transform="matrix(1,0,0,1,207,-256)" stroke-linecap="butt">
      <ellipse rx="85" fill="none" ry="42.5" clip-path="url(#clipPath2)" cx="1019" cy="1111"/>
      <text x="972.1367" xml:space="preserve" y="1108.1699" clip-path="url(#clipPath2)" font-family="sans-serif" stroke="none">Выбрать точку</text>
      <text x="989.6504" xml:space="preserve" y="1122.1387" clip-path="url(#clipPath2)" font-family="sans-serif" stroke="none">доставки</text>
    </g>
    <g fill="url(#linearGradient16)" text-rendering="geometricPrecision" shape-rendering="geometricPrecision" transform="matrix(1,0,0,1,207,-256)" stroke="url(#linearGradient16)">
      <ellipse rx="85" ry="42.5" clip-path="url(#clipPath2)" cx="1031" cy="313.5" stroke="none"/>
    </g>
    <g text-rendering="geometricPrecision" stroke-miterlimit="1.45" shape-rendering="geometricPrecision" transform="matrix(1,0,0,1,207,-256)" stroke-linecap="butt">
      <ellipse rx="85" fill="none" ry="42.5" clip-path="url(#clipPath2)" cx="1031" cy="313.5"/>
      <text x="988.5752" xml:space="preserve" y="317.6543" clip-path="url(#clipPath2)" font-family="sans-serif" stroke="none">Ввести логин</text>
    </g>
    <g fill="url(#linearGradient17)" text-rendering="geometricPrecision" shape-rendering="geometricPrecision" transform="matrix(1,0,0,1,207,-256)" stroke="url(#linearGradient17)">
      <ellipse rx="85" ry="42.5" clip-path="url(#clipPath2)" cx="1031" cy="450" stroke="none"/>
    </g>
    <g text-rendering="geometricPrecision" stroke-miterlimit="1.45" shape-rendering="geometricPrecision" transform="matrix(1,0,0,1,207,-256)" stroke-linecap="butt">
      <ellipse rx="85" fill="none" ry="42.5" clip-path="url(#clipPath2)" cx="1031" cy="450"/>
      <text x="984.6055" xml:space="preserve" y="454.1543" clip-path="url(#clipPath2)" font-family="sans-serif" stroke="none">Ввести пароль</text>
    </g>
    <g text-rendering="geometricPrecision" stroke-miterlimit="1.45" shape-rendering="geometricPrecision" transform="matrix(1,0,0,1,207,-256)" stroke-linecap="butt">
      <path fill="none" d="M567.9949 802.668 L494.0396 686.006" clip-path="url(#clipPath2)"/>
      <path fill="white" d="M486.0084 673.3372 L489.5074 690.0631 L499.6425 683.6382 Z" clip-path="url(#clipPath2)" stroke="none"/>
      <path fill="none" d="M486.0084 673.3372 L489.5074 690.0631 L499.6425 683.6382 Z" clip-path="url(#clipPath2)"/>
      <path fill="none" d="M485.9921 442.867 L696.373 484.0213" clip-path="url(#clipPath2)"/>
      <path fill="none" d="M485.9921 614.1252 L708.8835 525.8755" clip-path="url(#clipPath2)"/>
      <path fill="none" d="M485.9736 431.9564 L687.4063 398.0614" clip-path="url(#clipPath2)"/>
      <path fill="none" d="M485.9921 625.6714 L690.5065 623.4311" clip-path="url(#clipPath2)"/>
      <path fill="none" d="M425.9687 616.7661 L264.1714 567.0177" clip-path="url(#clipPath2)"/>
      <path fill="none" d="M305.4879 812.7852 L416.5851 674.9138" clip-path="url(#clipPath2)"/>
      <path fill="white" d="M425.9968 663.2339 L411.2857 671.9278 L420.6296 679.4572 Z" clip-path="url(#clipPath2)" stroke="none"/>
      <path fill="none" d="M425.9968 663.2339 L411.2857 671.9278 L420.6296 679.4572 Z" clip-path="url(#clipPath2)"/>
      <path fill="none" d="M289.8005 899.9977 L329.4713 1038.6951" clip-path="url(#clipPath2)"/>
      <path fill="none" d="M425.9687 635.3759 L263.8283 685.9968" clip-path="url(#clipPath2)"/>
      <path fill="none" d="M245.4732 850 L94.0114 850" clip-path="url(#clipPath2)"/>
      <path fill="none" d="M-72.0811 939.993 L-35.9394 899.8788" clip-path="url(#clipPath2)"/>
      <path fill="white" d="M-25.8989 888.7348 L-41.0663 896.6055 L-32.1511 904.6379 Z" clip-path="url(#clipPath2)" stroke="none"/>
      <path fill="none" d="M-25.8989 888.7348 L-41.0663 896.6055 L-32.1511 904.6379 Z" clip-path="url(#clipPath2)"/>
      <path fill="none" d="M86.7488 941.4073 L51.9933 900.5462" clip-path="url(#clipPath2)"/>
      <path fill="white" d="M42.2748 889.1204 L48.0709 905.1954 L57.2116 897.4205 Z" clip-path="url(#clipPath2)" stroke="none"/>
      <path fill="none" d="M42.2748 889.1204 L48.0709 905.1954 L57.2116 897.4205 Z" clip-path="url(#clipPath2)"/>
      <path fill="none" d="M628.0085 850 L822.9977 850" clip-path="url(#clipPath2)"/>
      <path fill="none" d="M826.9189 939.993 L863.0607 899.8788" clip-path="url(#clipPath2)"/>
      <path fill="white" d="M873.1011 888.7347 L857.9337 896.6055 L866.8489 904.6379 Z" clip-path="url(#clipPath2)" stroke="none"/>
      <path fill="none" d="M873.1011 888.7347 L857.9337 896.6055 L866.8489 904.6379 Z" clip-path="url(#clipPath2)"/>
      <path fill="none" d="M985.7488 941.4073 L950.9933 900.5462" clip-path="url(#clipPath2)"/>
      <path fill="white" d="M941.2748 889.1204 L947.0709 905.1953 L956.2115 897.4205 Z" clip-path="url(#clipPath2)" stroke="none"/>
      <path fill="none" d="M941.2748 889.1204 L947.0709 905.1953 L956.2115 897.4205 Z" clip-path="url(#clipPath2)"/>
      <path fill="none" d="M586.0829 899.9977 L553.066 1038.5186" clip-path="url(#clipPath2)"/>
      <path fill="none" stroke-dasharray="6,2" d="M120 1022.9698 L120 1063.4894" clip-path="url(#clipPath2)"/>
      <path stroke-dasharray="6,2" d="M120 1067.4894 L126 1055.4894 L120 1067.4894 L114 1055.4894 Z" clip-path="url(#clipPath2)" stroke="none"/>
      <path fill="none" stroke-miterlimit="10" d="M120 1067.4894 L126 1055.4894 L120 1067.4894 L114 1055.4894 Z" clip-path="url(#clipPath2)" stroke-linecap="square"/>
      <text x="68.2617" xml:space="preserve" y="1049.9043" clip-path="url(#clipPath2)" font-family="sans-serif" stroke="none">include</text>
      <path fill="none" stroke-dasharray="6,2" d="M1019 1022.9698 L1019 1063.4894" clip-path="url(#clipPath2)"/>
      <path stroke-dasharray="6,2" d="M1019 1067.4894 L1025 1055.4894 L1019 1067.4894 L1013 1055.4894 Z" clip-path="url(#clipPath2)" stroke="none"/>
      <path fill="none" stroke-miterlimit="10" d="M1019 1067.4894 L1025 1055.4894 L1019 1067.4894 L1013 1055.4894 Z" clip-path="url(#clipPath2)" stroke-linecap="square"/>
      <text x="967.2617" xml:space="preserve" y="1049.9043" clip-path="url(#clipPath2)" font-family="sans-serif" stroke="none">include</text>
      <path fill="none" stroke-dasharray="6,2" d="M842.7714 364.3146 L951.4052 334.9875" clip-path="url(#clipPath2)"/>
      <path stroke-dasharray="6,2" d="M955.267 333.945 L942.1179 331.2799 L955.267 333.945 L945.2455 342.8652 Z" clip-path="url(#clipPath2)" stroke="none"/>
      <path fill="none" stroke-miterlimit="10" d="M955.267 333.945 L942.1179 331.2799 L955.267 333.945 L945.2455 342.8652 Z" clip-path="url(#clipPath2)" stroke-linecap="square"/>
      <text x="877.7617" xml:space="preserve" y="384.2283" clip-path="url(#clipPath2)" font-family="sans-serif" stroke="none">include</text>
      <path fill="none" stroke-dasharray="6,2" d="M844.0555 403.4416 L950.0651 429.8432" clip-path="url(#clipPath2)"/>
      <path stroke-dasharray="6,2" d="M953.9466 430.8099 L943.7523 422.0877 L953.9466 430.8099 L940.8522 433.732 Z" clip-path="url(#clipPath2)" stroke="none"/>
      <path fill="none" stroke-miterlimit="10" d="M953.9466 430.8099 L943.7523 422.0877 L953.9466 430.8099 L940.8522 433.732 Z" clip-path="url(#clipPath2)" stroke-linecap="square"/>
      <text x="877.7617" xml:space="preserve" y="452.3207" clip-path="url(#clipPath2)" font-family="sans-serif" stroke="none">include</text>
    </g>
  </g>
</svg>
